<svg xmlns="http://www.w3.org/2000/svg" version="1.1" viewBox="0 0 100 100">
 <path d="m16.668 20.832c0-6.9023 5.5977-12.5 12.5-12.5 6.9023 0 12.5 5.5977 12.5 12.5 0 6.9062-5.5977 12.5-12.5 12.5-6.9023 0-12.5-5.5938-12.5-12.5zm12.5-4.1641c-2.3008 0-4.1641 1.8633-4.1641 4.1641s1.8633 4.168 4.1641 4.168 4.168-1.8672 4.168-4.168-1.8672-4.1641-4.168-4.1641z" fill-rule="evenodd"/>
 <path d="m70.832 16.668h-20.285l11.262 16.895 6.9375-4.625-2.6289-3.9375h4.7148c2.3008 0 4.168 1.8672 4.168 4.168v12.5h8.332v-12.5c0-6.9062-5.5977-12.5-12.5-12.5z"/>
 <path d="m29.168 83.332h20.285l-11.262-16.895-6.9336 4.625 2.625 3.9375h-4.7148c-2.3008 0-4.168-1.8672-4.168-4.168v-12.5h-8.332v12.5c0 6.9062 5.5938 12.5 12.5 12.5z"/>
 <path d="m16.668 50c0-2.3008 1.8633-4.168 4.1641-4.168h16.668c2.3008 0 4.168 1.8672 4.168 4.168h8.332c0-6.9023-5.5977-12.5-12.5-12.5h-16.668c-6.9023 0-12.5 5.5977-12.5 12.5z"/>
 <path d="m58.336 62.5c0-6.9023 5.5977-12.5 12.5-12.5 6.9023 0 12.5 5.5977 12.5 12.5s-5.5977 12.5-12.5 12.5c-6.9023 0-12.5-5.5977-12.5-12.5zm12.5-4.168c-2.3008 0-4.168 1.8672-4.168 4.168s1.8672 4.168 4.168 4.168c2.3008 0 4.168-1.8672 4.168-4.168s-1.8672-4.168-4.168-4.168z" fill-rule="evenodd"/>
 <path d="m58.332 91.668c0-2.3047 1.8672-4.168 4.168-4.168h16.668c2.3008 0 4.1641 1.8633 4.1641 4.168h8.3359c0-6.9062-5.5977-12.5-12.5-12.5h-16.668c-6.9023 0-12.5 5.5938-12.5 12.5z"/>
</svg>